<svg t="1734098572622" class="icon" viewBox="0 0 1024 1024" version="1.1" xmlns="http://www.w3.org/2000/svg" p-id="6970" width="256" height="256"><path d="M0 524.801965c0 231.872235 146.611111 428.572428 350.038597 497.965917 25.592962 4.899224 33.855833-11.407149 33.855832-25.227349v-97.691991l-172.057827-61.934968c-15.502023-40.43688-34.440814-66.029842-56.816375-76.778886-31.004045-21.717456-29.834081-32.320255 3.509892-31.881518 34.294569 2.413051 60.39939 20.47437 78.460709 54.110833 45.628595 80.215655 119.701939 57.035744 148.951038 43.581159 4.53361-33.855833 17.841951-57.035744 32.4665-70.197839-113.632751-13.30834-233.188445-58.27883-233.188444-259.293266 0-57.401357 20.035633-104.126794 52.721501-140.907536-5.264838-13.235217-22.814297-66.614824 5.04547-138.933222 28.664117-9.359712 75.608922 8.555362 140.761291 53.818343A479.538984 479.538984 0 0 1 511.859239 253.80906a481.001439 481.001439 0 0 1 128.184178 17.622582c65.152369-45.262981 112.097173-63.178055 140.688168-53.74522 27.786644 72.245275 10.237185 125.698004 5.045469 138.933222 32.832114 36.70762 52.648379 83.506179 52.648379 140.834413 0 201.526295-119.701939 245.911803-233.700304 258.85453 18.280687 16.306373 35.098919 48.261014 35.098919 97.253255v144.051814c0 13.893322 8.189748 30.272818 34.148324 25.154226 203.281241-69.466611 349.746106-266.166804 349.746105-497.965917C1023.718477 234.943391 794.551784 0 511.859239 0 229.239816 0 0 234.943391 0 524.801965z" fill="#000000" p-id="6971"></path></svg>
