<svg t="1741494458033" class="icon" viewBox="0 0 1024 1024" version="1.1" xmlns="http://www.w3.org/2000/svg" p-id="7262" width="256" height="256"><path d="M541.257143 87.771429l394.971428 394.971428c14.628571 14.628571 14.628571 43.885714 0 65.828572l-394.971428 394.971428c-14.628571 14.628571-43.885714 14.628571-65.828572 0L87.771429 541.257143c-14.628571-14.628571-14.628571-43.885714 0-65.828572l394.971428-394.971428c14.628571-14.628571 43.885714-14.628571 58.514286 7.314286z" fill="#1F333D" opacity=".9" p-id="7263"></path><path d="M512 131.657143L892.342857 512 512 892.342857 131.657143 512 512 131.657143M512 73.142857c-14.628571 0-21.942857 7.314286-29.257143 14.628572L87.771429 482.742857c-14.628571 14.628571-14.628571 43.885714 0 65.828572l394.971428 394.971428c7.314286 0 14.628571 7.314286 29.257143 7.314286s21.942857-7.314286 29.257143-14.628572l394.971428-394.971428c14.628571-14.628571 14.628571-43.885714 0-65.828572L541.257143 87.771429C533.942857 80.457143 526.628571 73.142857 512 73.142857z" fill="#A3D900" p-id="7264"></path><path d="M694.857143 365.714286l-43.885714-36.571429c-7.314286-7.314286-14.628571 0-21.942858 0v14.628572s-7.314286 0-7.314285 7.314285L533.942857 460.8v21.942857l14.628572 7.314286-7.314286 14.628571-7.314286-7.314285c-36.571429-36.571429-73.142857-65.828571-73.142857-65.828572-36.571429-29.257143-14.628571-65.828571 21.942857-80.457143 7.314286 0 14.628571-7.314286 29.257143-7.314285h14.628571c7.314286 0 7.314286-14.628571 0-14.628572H512c-51.2 0-102.4 14.628571-153.6 58.514286l-7.314286 7.314286c-14.628571 36.571429-36.571429 43.885714-51.2 51.2-7.314286-7.314286-14.628571-7.314286-14.628571 0l-14.628572 14.628571c-7.314286 7.314286-7.314286 14.628571 0 14.628571l51.2 51.2c7.314286 7.314286 14.628571 7.314286 21.942858 0l7.314285-14.628571h7.314286c7.314286-7.314286 7.314286-7.314286 0-14.628571v-7.314286l7.314286-7.314286c21.942857-7.314286 43.885714 7.314286 51.2 14.628572 0 0 36.571429 29.257143 73.142857 65.828571l-51.2 65.828571-21.942857 14.628572-14.628572 36.571428 21.942857 14.628572 29.257143-29.257143 14.628572-29.257143 43.885714-65.828571c58.514286 51.2 124.342857 109.714286 124.342857 109.714285l51.2-43.885714-117.028571-102.4-14.628572-14.628571 7.314286-7.314286 14.628571 7.314286c7.314286-7.314286 14.628571-14.628571 21.942858-14.628572l87.771428-109.714285v-7.314286c7.314286 0 7.314286 0 14.628572-7.314286 0-7.314286 0-14.628571-7.314286-14.628571zM570.514286 460.8h-7.314286l65.828571-80.457143 7.314286 7.314286-65.828571 73.142857z m29.257143 21.942857L658.285714 394.971429l7.314286 7.314285-65.828571 80.457143z" fill="#A3D900" p-id="7265"></path></svg>
