<svg t="1741523919838" class="icon" viewBox="0 0 1024 1024" version="1.1" xmlns="http://www.w3.org/2000/svg" p-id="20868" width="256" height="256"><path d="M772.352 307.2c-27.5968 0-51.6096 30.72-85.3504 65.5872 6.4512-72.4992-39.3216-247.3472-167.8848-304.6912a56.32 56.32 0 0 0-74.496 30.4128c-90.6752 221.2352-317.7472 257.28-317.7472 500.0704 0 202.8032 173.824 367.1552 388.2496 367.1552s388.2496-164.352 388.2496-367.1552C903.3728 493.9264 855.04 307.2 772.352 307.2z" fill="#B095FF" p-id="20869"></path><path d="M408.8832 455.68a38.4 38.4 0 0 0-53.8624-6.9632C310.8864 482.816 241.9712 578.56 297.3184 696.7808a38.4 38.4 0 0 0 69.5808-32.512c-42.0352-89.9072 27.0336-148.48 35.1744-154.7264A38.4512 38.4512 0 0 0 408.8832 455.68z" fill="#FFCD43" p-id="20870"></path></svg>
