<svg t="1741524028038" class="icon" viewBox="0 0 1024 1024" version="1.1" xmlns="http://www.w3.org/2000/svg" p-id="30366" width="256" height="256"><path d="M789.3 418.348c-10.032-46.656-36.214-92.748-77.84-137.058-44.344-47.154-69.34-102.308-74.308-163.87-3.75-46.53 5.938-79.56 6.032-79.842L654.68 0.018l-37.778 10.812c-169.682 48.466-252.18 135.682-263.272 280.458-16.25-7.782-31.718-14.218-34.5-15.376l-19.374-8.032-8.376 19.25c-53.936 124.214-23.686 215.118 11.218 269.552 26.5 41.31 65.184 76.374 111.872 101.402 43.03 23.032 90.966 36.218 134.9 37.124 2.062 0.062 4.124 0.062 6.188 0.062 74.532 0 180.402-58.842 221.524-153.934 17.126-39.618 21.218-80.99 12.218-122.988z" fill="#F6BB42" p-id="30367"></path><path d="M840.458 586.308c-5.376-68.558-69.844-104.652-122.996-122.87-106.528-36.5-155.652-170.87-156.152-172.212l-10.218-28.782-23.496 19.5c-96.28 79.874-127.81 165.276-99.874 273.646l-21.312-0.156 1.782 23.156c5.124 66.716 31.156 120.994 75.278 156.994 37.062 30.188 86.402 46.81 138.934 46.81 36.214 0 72.278-8.092 101.528-22.78 1.376-0.688 2.75-1.406 4.124-2.124 28.282-14.938 56.528-39.75 77.464-67.998 17.75-23.936 38.218-61.278 34.938-103.184z" fill="#FFCE54" p-id="30368"></path><path d="M654.274 397.972c-55.746 0-106.122 22.904-142.274 59.81-36.154-36.906-86.528-59.81-142.276-59.81-109.996 0-199.18 89.184-199.18 199.18C170.542 824.8 512 1023.982 512 1023.982S853.458 824.8 853.458 597.152c0-109.996-89.184-199.18-199.184-199.18z" fill="#ED5564" p-id="30369"></path><path d="M654.274 397.972c-7.214 0-14.34 0.376-21.34 1.124 99.964 10.656 177.836 95.246 177.836 198.054 0 192.994-245.398 365.52-320.114 413.58 13.406 8.624 21.342 13.25 21.342 13.25s341.46-199.18 341.46-426.828c0-109.996-89.184-199.18-199.184-199.18z" fill="#FFFFFF" opacity=".2" p-id="30370"></path></svg>
