<svg t="1741523982020" class="icon" viewBox="0 0 1024 1024" version="1.1" xmlns="http://www.w3.org/2000/svg" p-id="26588" width="256" height="256"><path d="M483.4 723.5h-284c-7.7 0-15-3.4-20-9.3-4.9-5.9-7-13.5-5.7-21 22.2-128.5 133.1-221.8 263.7-221.8 13.8 0 27.5 1.3 41.1 3.4h0.3c48.6 7.7 94.5 28.5 132.4 60.9 6.5 5.5 16.4 4.8 21.9-1.7 5.6-6.5 4.8-16.4-1.7-21.9-33.3-28.5-72.3-49.1-113.9-60.7 34.5-21.2 74.4-32.7 115.3-32.7 79.7 0 153.5 43.3 192.5 112.9 2.8 5.1 8.1 8 13.6 8 2.6 0 5.2-0.6 7.6-2 7.5-4.2 10.2-13.7 6-21.2-32.1-57.4-85.1-98.7-146.2-117.4 44.2-25.5 74-73.1 74-127.7 0-81.3-66.1-147.5-147.4-147.5-34.9 0-68 12.1-94.5 34.3-28.9-21.4-64.5-34.3-103.2-34.3-95.8 0-173.8 78-173.8 173.8 0 67 38.2 125.2 93.9 154.2C247.1 482.5 163 572.4 143 687.9c-2.8 16.5 1.7 33.4 12.6 46.3 10.9 13 26.9 20.4 43.8 20.4h284c8.6 0 15.6-7 15.6-15.6 0-8.5-7-15.5-15.6-15.5z m265.8-452.3c0 64.1-52.2 116.3-116.3 116.3-15.2 0-30.2-3-44.1-8.7 12.9-24.3 20.3-51.9 20.3-81.3 0-45.7-17.8-87.2-46.8-118.2 20.2-15.6 44.6-24.5 70.6-24.5 64.1 0.1 116.3 52.3 116.3 116.4z m-456.7 26.4c0-78.7 64-142.7 142.7-142.7s142.7 64 142.7 142.7-64 142.7-142.7 142.7-142.7-64-142.7-142.7zM720.6 664c-41.4 0-75.1 33.7-75.1 75.1 0 41.4 33.7 75.1 75.1 75.1 41.4 0 75.1-33.7 75.1-75.1 0-41.4-33.7-75.1-75.1-75.1z m0 119c-24.2 0-44-19.7-44-44s19.7-44 44-44c24.2 0 44 19.7 44 44s-19.8 44-44 44z" fill="#71AEFF" p-id="26589"></path><path d="M720.6 577.8c-88.9 0-161.2 72.3-161.2 161.2s72.3 161.2 161.2 161.2S881.8 827.9 881.8 739s-72.3-161.2-161.2-161.2z m0 296.5c-74.6 0-135.3-60.7-135.3-135.3S646 603.8 720.6 603.8s135.3 60.7 135.3 135.3-60.7 135.2-135.3 135.2z" fill="#71AEFF" p-id="26590"></path></svg>
