<svg t="1741523642721" class="icon" viewBox="0 0 1024 1024" version="1.1" xmlns="http://www.w3.org/2000/svg" p-id="4173" width="256" height="256"><path d="M491.946667 853.333333A322.133333 322.133333 0 0 1 170.666667 529.92a322.56 322.56 0 0 1 229.12-309.76 35.413333 35.413333 0 0 1 42.666666 23.893333 35.84 35.84 0 0 1-23.893333 42.666667 251.733333 251.733333 0 0 0 71.68 492.8 252.16 252.16 0 0 0 238.933333-178.773333 35.413333 35.413333 0 0 1 42.666667-23.893334 36.266667 36.266667 0 0 1 23.893333 42.666667 326.826667 326.826667 0 0 1-114.346666 164.693333A318.293333 318.293333 0 0 1 491.946667 853.333333z" fill="#15F5A8" p-id="4174"></path><path d="M817.493333 529.92h-285.44a35.84 35.84 0 0 1-35.413333-35.84V206.506667a35.84 35.84 0 0 1 35.413333-35.84A322.133333 322.133333 0 0 1 853.333333 494.08a35.84 35.84 0 0 1-35.84 35.84z m-249.6-71.68h213.333334a252.16 252.16 0 0 0-213.333334-213.333333z" fill="#15F5A8" p-id="4175"></path></svg>
